<?xml version="1.0" encoding="UTF-8" standalone="no"?>
<!-- Created with Inkscape (http://www.inkscape.org/) -->

<svg
   xmlns:dc="http://purl.org/dc/elements/1.1/"
   xmlns:cc="http://creativecommons.org/ns#"
   xmlns:rdf="http://www.w3.org/1999/02/22-rdf-syntax-ns#"
   xmlns:svg="http://www.w3.org/2000/svg"
   xmlns="http://www.w3.org/2000/svg"
   xmlns:xlink="http://www.w3.org/1999/xlink"
   xmlns:sodipodi="http://sodipodi.sourceforge.net/DTD/sodipodi-0.dtd"
   xmlns:inkscape="http://www.inkscape.org/namespaces/inkscape"
   width="480"
   height="272"
   id="svg2"
   version="1.1"
   inkscape:version="0.47 r22583"
   sodipodi:docname="fonds.svg"
   inkscape:export-filename="G:\Documents and Settings\-T2-\Mes documents\Téléchargements\maitre_penseur\images\fond_apropos.png"
   inkscape:export-xdpi="90"
   inkscape:export-ydpi="90"
   style="display:inline">
  <defs
     id="defs4">
    <linearGradient
       inkscape:collect="always"
       id="linearGradient3735">
      <stop
         style="stop-color:#000000;stop-opacity:1;"
         offset="0"
         id="stop3737" />
      <stop
         style="stop-color:#000000;stop-opacity:0;"
         offset="1"
         id="stop3739" />
    </linearGradient>
    <linearGradient
       inkscape:collect="always"
       id="linearGradient3727">
      <stop
         style="stop-color:#000000;stop-opacity:1;"
         offset="0"
         id="stop3729" />
      <stop
         style="stop-color:#000000;stop-opacity:0;"
         offset="1"
         id="stop3731" />
    </linearGradient>
    <linearGradient
       inkscape:collect="always"
       id="linearGradient3717">
      <stop
         style="stop-color:#000000;stop-opacity:1;"
         offset="0"
         id="stop3719" />
      <stop
         style="stop-color:#000000;stop-opacity:0;"
         offset="1"
         id="stop3721" />
    </linearGradient>
    <linearGradient
       inkscape:collect="always"
       id="linearGradient3649">
      <stop
         style="stop-color:#828282;stop-opacity:1;"
         offset="0"
         id="stop3651" />
      <stop
         style="stop-color:#828282;stop-opacity:0;"
         offset="1"
         id="stop3653" />
    </linearGradient>
    <linearGradient
       inkscape:collect="always"
       id="linearGradient3788">
      <stop
         style="stop-color:#000000;stop-opacity:1;"
         offset="0"
         id="stop3790" />
      <stop
         style="stop-color:#000000;stop-opacity:0"
         offset="1"
         id="stop3792" />
    </linearGradient>
    <linearGradient
       inkscape:collect="always"
       id="linearGradient3642">
      <stop
         style="stop-color:#b4b4b4;stop-opacity:1;"
         offset="0"
         id="stop3644" />
      <stop
         style="stop-color:#b4b4b4;stop-opacity:0;"
         offset="1"
         id="stop3646" />
    </linearGradient>
    <inkscape:perspective
       sodipodi:type="inkscape:persp3d"
       inkscape:vp_x="0 : 526.18109 : 1"
       inkscape:vp_y="0 : 1000 : 0"
       inkscape:vp_z="744.09448 : 526.18109 : 1"
       inkscape:persp3d-origin="372.04724 : 350.78739 : 1"
       id="perspective10" />
    <inkscape:perspective
       id="perspective3613"
       inkscape:persp3d-origin="0.5 : 0.33333333 : 1"
       inkscape:vp_z="1 : 0.5 : 1"
       inkscape:vp_y="0 : 1000 : 0"
       inkscape:vp_x="0 : 0.5 : 1"
       sodipodi:type="inkscape:persp3d" />
    <inkscape:perspective
       id="perspective3627"
       inkscape:persp3d-origin="0.5 : 0.33333333 : 1"
       inkscape:vp_z="1 : 0.5 : 1"
       inkscape:vp_y="0 : 1000 : 0"
       inkscape:vp_x="0 : 0.5 : 1"
       sodipodi:type="inkscape:persp3d" />
    <linearGradient
       inkscape:collect="always"
       xlink:href="#linearGradient3642"
       id="linearGradient3648"
       x1="17.452782"
       y1="177"
       x2="296.54727"
       y2="177"
       gradientUnits="userSpaceOnUse"
       gradientTransform="matrix(1.1328757,0,0,0.93718699,-20.361498,-8.8820997)" />
    <inkscape:perspective
       id="perspective3658"
       inkscape:persp3d-origin="0.5 : 0.33333333 : 1"
       inkscape:vp_z="1 : 0.5 : 1"
       inkscape:vp_y="0 : 1000 : 0"
       inkscape:vp_x="0 : 0.5 : 1"
       sodipodi:type="inkscape:persp3d" />
    <linearGradient
       inkscape:collect="always"
       xlink:href="#linearGradient3642-7"
       id="linearGradient3648-1"
       x1="17.452782"
       y1="177"
       x2="296.54727"
       y2="177"
       gradientUnits="userSpaceOnUse"
       gradientTransform="matrix(1.133068,0,0,0.91252921,-20.391668,8.4823293)" />
    <linearGradient
       id="linearGradient3642-7">
      <stop
         style="stop-color:#828282;stop-opacity:1;"
         offset="0"
         id="stop3644-4" />
      <stop
         style="stop-color:#b4b4b4;stop-opacity:0;"
         offset="1"
         id="stop3646-0" />
    </linearGradient>
    <linearGradient
       y2="177"
       x2="296.54727"
       y1="177"
       x1="17.452782"
       gradientTransform="matrix(1.2587508,0,0,0.12495826,-22.623889,224.882)"
       gradientUnits="userSpaceOnUse"
       id="linearGradient3667"
       xlink:href="#linearGradient3642-7"
       inkscape:collect="always" />
    <inkscape:perspective
       id="perspective3698"
       inkscape:persp3d-origin="0.5 : 0.33333333 : 1"
       inkscape:vp_z="1 : 0.5 : 1"
       inkscape:vp_y="0 : 1000 : 0"
       inkscape:vp_x="0 : 0.5 : 1"
       sodipodi:type="inkscape:persp3d" />
    <inkscape:perspective
       id="perspective2847"
       inkscape:persp3d-origin="0.5 : 0.33333333 : 1"
       inkscape:vp_z="1 : 0.5 : 1"
       inkscape:vp_y="0 : 1000 : 0"
       inkscape:vp_x="0 : 0.5 : 1"
       sodipodi:type="inkscape:persp3d" />
    <inkscape:perspective
       id="perspective2910"
       inkscape:persp3d-origin="0.5 : 0.33333333 : 1"
       inkscape:vp_z="1 : 0.5 : 1"
       inkscape:vp_y="0 : 1000 : 0"
       inkscape:vp_x="0 : 0.5 : 1"
       sodipodi:type="inkscape:persp3d" />
    <path
       style="fill:#b4b4b4;fill-opacity:1;stroke:#828282;stroke-width:0.24601598;stroke-linecap:butt;stroke-linejoin:miter;stroke-opacity:1"
       d="m 1.9876973,780.3602 c 0,0 -11.8766828,60.66306 46.5170097,58.70619 58.393693,-1.95688 375.105243,-17.61186 401.827783,15.65498 26.72253,33.26686 -20.63004,135.18364 -15.83558,157.52823 6.92806,32.2885 38.45847,35.5774 46.37625,40.4696 -0.21392,-15.6139 -0.84897,-272.359 -0.84897,-272.359"
       id="path2818-4"
       sodipodi:nodetypes="czsscc" />
    <inkscape:perspective
       id="perspective3734"
       inkscape:persp3d-origin="0.5 : 0.33333333 : 1"
       inkscape:vp_z="1 : 0.5 : 1"
       inkscape:vp_y="0 : 1000 : 0"
       inkscape:vp_x="0 : 0.5 : 1"
       sodipodi:type="inkscape:persp3d" />
    <linearGradient
       inkscape:collect="always"
       xlink:href="#linearGradient3788"
       id="linearGradient3794"
       x1="4.5"
       y1="85"
       x2="64.5"
       y2="207"
       gradientUnits="userSpaceOnUse"
       gradientTransform="matrix(1.008,0,0,1,-2.26,0)" />
    <radialGradient
       inkscape:collect="always"
       xlink:href="#linearGradient3649"
       id="radialGradient3657"
       cx="142.49942"
       cy="131.49942"
       fx="142.49942"
       fy="131.49942"
       r="107.49942"
       gradientTransform="matrix(1,0,0,0.00465661,0,133.88708)"
       gradientUnits="userSpaceOnUse" />
    <radialGradient
       inkscape:collect="always"
       xlink:href="#linearGradient3649"
       id="radialGradient3661"
       gradientUnits="userSpaceOnUse"
       gradientTransform="matrix(1,0,0,0.00465661,0,145.88708)"
       cx="142.49942"
       cy="131.49942"
       fx="142.49942"
       fy="131.49942"
       r="107.49942" />
    <radialGradient
       inkscape:collect="always"
       xlink:href="#linearGradient3649"
       id="radialGradient3665"
       gradientUnits="userSpaceOnUse"
       gradientTransform="matrix(1,0,0,0.00465661,0,157.88708)"
       cx="142.49942"
       cy="131.49942"
       fx="142.49942"
       fy="131.49942"
       r="107.49942" />
    <radialGradient
       inkscape:collect="always"
       xlink:href="#linearGradient3649"
       id="radialGradient3669"
       gradientUnits="userSpaceOnUse"
       gradientTransform="matrix(1,0,0,0.00465661,0,169.88708)"
       cx="142.49942"
       cy="131.49942"
       fx="142.49942"
       fy="131.49942"
       r="107.49942" />
    <radialGradient
       inkscape:collect="always"
       xlink:href="#linearGradient3649"
       id="radialGradient3673"
       gradientUnits="userSpaceOnUse"
       gradientTransform="matrix(1,0,0,0.00465661,0,181.88708)"
       cx="142.49942"
       cy="131.49942"
       fx="142.49942"
       fy="131.49942"
       r="107.49942" />
    <radialGradient
       inkscape:collect="always"
       xlink:href="#linearGradient3649"
       id="radialGradient3677"
       gradientUnits="userSpaceOnUse"
       gradientTransform="matrix(1,0,0,0.00465661,0,193.88708)"
       cx="142.49942"
       cy="131.49942"
       fx="142.49942"
       fy="131.49942"
       r="107.49942" />
    <radialGradient
       inkscape:collect="always"
       xlink:href="#linearGradient3649"
       id="radialGradient3681"
       gradientUnits="userSpaceOnUse"
       gradientTransform="matrix(1,0,0,0.00465661,0,205.88708)"
       cx="142.49942"
       cy="131.49942"
       fx="142.49942"
       fy="131.49942"
       r="107.49942" />
    <radialGradient
       inkscape:collect="always"
       xlink:href="#linearGradient3649"
       id="radialGradient3685"
       gradientUnits="userSpaceOnUse"
       gradientTransform="matrix(1,0,0,0.00465661,0,217.88708)"
       cx="142.49942"
       cy="131.49942"
       fx="142.49942"
       fy="131.49942"
       r="107.49942" />
    <linearGradient
       inkscape:collect="always"
       xlink:href="#linearGradient3788"
       id="linearGradient3709"
       x1="240.93927"
       y1="762.36218"
       x2="240.93927"
       y2="983.53406"
       gradientUnits="userSpaceOnUse"
       gradientTransform="translate(0,4)" />
    <radialGradient
       inkscape:collect="always"
       xlink:href="#linearGradient3717"
       id="radialGradient3725"
       cx="55.5"
       cy="171"
       fx="55.5"
       fy="171"
       r="0.5"
       gradientTransform="matrix(1,0,0,112,0,-18981)"
       gradientUnits="userSpaceOnUse" />
    <radialGradient
       inkscape:collect="always"
       xlink:href="#linearGradient3727"
       id="radialGradient3733"
       cx="175.5"
       cy="171"
       fx="175.5"
       fy="171"
       r="0.5"
       gradientTransform="matrix(1,0,0,112,0,-18981)"
       gradientUnits="userSpaceOnUse" />
    <radialGradient
       inkscape:collect="always"
       xlink:href="#linearGradient3735"
       id="radialGradient3741"
       cx="195.5"
       cy="171"
       fx="195.5"
       fy="171"
       r="0.5"
       gradientTransform="matrix(1,0,0,112,0,-18981)"
       gradientUnits="userSpaceOnUse" />
  </defs>
  <sodipodi:namedview
     id="base"
     pagecolor="#dcdcdc"
     bordercolor="#666666"
     borderopacity="1.0"
     inkscape:pageopacity="1"
     inkscape:pageshadow="2"
     inkscape:zoom="1"
     inkscape:cx="24.52139"
     inkscape:cy="126.82178"
     inkscape:document-units="px"
     inkscape:current-layer="g2938"
     showgrid="false"
     inkscape:window-width="1280"
     inkscape:window-height="977"
     inkscape:window-x="-4"
     inkscape:window-y="-4"
     inkscape:window-maximized="1"
     borderlayer="true"
     showguides="true"
     inkscape:guide-bbox="true" />
  <metadata
     id="metadata7">
    <rdf:RDF>
      <cc:Work
         rdf:about="">
        <dc:format>image/svg+xml</dc:format>
        <dc:type
           rdf:resource="http://purl.org/dc/dcmitype/StillImage" />
        <dc:title></dc:title>
      </cc:Work>
    </rdf:RDF>
  </metadata>
  <g
     inkscape:groupmode="layer"
     id="layer5"
     inkscape:label="empoule eteinte"
     style="opacity:0.5;display:none"
     sodipodi:insensitive="true">
    <image
       y="69"
       x="312.5"
       id="image3615"
       height="200"
       width="120.5"
       xlink:href="file:///G:/Documents%20and%20Settings/-T2-/Mes%20documents/T%C3%A9l%C3%A9chargements/jpcsp0.5win(rev1379)/jpcsp0.5win(rev1379)/ms0/PSP/GAME/Maitre_penseur/src/fond.png" />
  </g>
  <g
     inkscape:groupmode="layer"
     id="layer7"
     inkscape:label="empoule allumee"
     style="display:none"
     sodipodi:insensitive="true">
    <image
       y="69"
       x="312.5"
       id="image3700"
       height="200"
       width="120.5"
       xlink:href="file:///G:/Documents%20and%20Settings/-T2-/Mes%20documents/T%C3%A9l%C3%A9chargements/jpcsp0.5win(rev1379)/jpcsp0.5win(rev1379)/ms0/PSP/GAME/Maitre_penseur/src/afond.png" />
  </g>
  <g
     inkscape:groupmode="layer"
     id="layer6"
     inkscape:label="fond bas"
     style="display:none"
     sodipodi:insensitive="true">
    <rect
       style="fill:url(#linearGradient3667);fill-opacity:1;stroke:none"
       id="rect3593-9"
       width="350"
       height="20"
       x="0"
       y="237"
       ry="0" />
  </g>
  <g
     inkscape:groupmode="layer"
     id="layer9"
     inkscape:label="texte bas"
     style="display:none"
     sodipodi:insensitive="true">
    <text
       xml:space="preserve"
       style="font-size:40px;font-style:normal;font-weight:normal;fill:#000000;fill-opacity:1;stroke:none;font-family:Bitstream Vera Sans"
       x="6.871582"
       y="250.42822"
       id="text3768"><tspan
         sodipodi:role="line"
         id="tspan3770"
         x="6.871582"
         y="250.42822"
         style="font-size:10px;font-style:normal;writing-mode:lr-tb;fill:#000000;fill-opacity:1;stroke:none;font-family:Consolas;-inkscape-font-specification:Consolas">L:valider - R:supprimer - select:menu</tspan></text>
  </g>
  <g
     inkscape:groupmode="layer"
     id="layer2"
     inkscape:label="fond milieu"
     style="display:none"
     sodipodi:insensitive="true">
    <rect
       style="fill:url(#linearGradient3648);fill-opacity:1;stroke:none"
       id="rect3593"
       width="315"
       height="150"
       x="0"
       y="82"
       ry="0" />
  </g>
  <g
     inkscape:groupmode="layer"
     id="layer11"
     inkscape:label="fond milieu tableau"
     style="opacity:0.5;display:none">
    <rect
       style="opacity:0.8;fill:url(#linearGradient3794);fill-opacity:1;stroke:none"
       id="rect3786"
       width="252"
       height="120"
       x="30.5"
       y="112" />
  </g>
  <g
     inkscape:groupmode="layer"
     id="layer12"
     inkscape:label="tableau"
     style="display:none">
    <path
       style="fill:none;stroke:url(#radialGradient3725);stroke-width:1px;stroke-linecap:butt;stroke-linejoin:miter;stroke-opacity:1"
       d="m 55.5,115.5 0,111"
       id="path2867" />
    <path
       id="path3641"
       d="m 175.5,115.5 0,111"
       style="fill:none;stroke:url(#radialGradient3733);stroke-width:1px;stroke-linecap:butt;stroke-linejoin:miter;stroke-opacity:1" />
    <path
       style="fill:none;stroke:url(#radialGradient3741);stroke-width:1px;stroke-linecap:butt;stroke-linejoin:miter;stroke-opacity:1"
       d="m 195.5,115.5 0,111"
       id="path3643" />
    <path
       style="fill:none;stroke:url(#radialGradient3657);stroke-width:1.00116479px;stroke-linecap:butt;stroke-linejoin:miter;stroke-opacity:1"
       d="m 35.500582,134.49942 213.997668,0"
       id="path3647" />
    <path
       id="path3659"
       d="m 35.500582,146.49942 213.997668,0"
       style="fill:none;stroke:url(#radialGradient3661);stroke-width:1.00116479px;stroke-linecap:butt;stroke-linejoin:miter;stroke-opacity:1" />
    <path
       style="fill:none;stroke:url(#radialGradient3665);stroke-width:1.00116479px;stroke-linecap:butt;stroke-linejoin:miter;stroke-opacity:1"
       d="m 35.500582,158.49942 213.997668,0"
       id="path3663" />
    <path
       id="path3667"
       d="m 35.500582,170.49942 213.997668,0"
       style="fill:none;stroke:url(#radialGradient3669);stroke-width:1.00116479px;stroke-linecap:butt;stroke-linejoin:miter;stroke-opacity:1" />
    <path
       style="fill:none;stroke:url(#radialGradient3673);stroke-width:1.00116479px;stroke-linecap:butt;stroke-linejoin:miter;stroke-opacity:1"
       d="m 35.500582,182.49942 213.997668,0"
       id="path3671" />
    <path
       id="path3675"
       d="m 35.500582,194.49942 213.997668,0"
       style="fill:none;stroke:url(#radialGradient3677);stroke-width:1.00116479px;stroke-linecap:butt;stroke-linejoin:miter;stroke-opacity:1" />
    <path
       style="fill:none;stroke:url(#radialGradient3681);stroke-width:1.00116479px;stroke-linecap:butt;stroke-linejoin:miter;stroke-opacity:1"
       d="m 35.500582,206.49942 213.997668,0"
       id="path3679" />
    <path
       id="path3683"
       d="m 35.500582,218.49942 213.997668,0"
       style="fill:none;stroke:url(#radialGradient3685);stroke-width:1.00116479px;stroke-linecap:butt;stroke-linejoin:miter;stroke-opacity:1" />
    <text
       xml:space="preserve"
       style="font-size:40.04469299px;font-style:normal;font-weight:normal;fill:#000000;fill-opacity:1;stroke:none;font-family:Bitstream Vera Sans"
       x="31.614353"
       y="119.59666"
       id="text3687"><tspan
         sodipodi:role="line"
         id="tspan3689"
         x="31.614353"
         y="119.59666"
         style="font-size:8.00893879px;font-family:Consolas;-inkscape-font-specification:Consolas">essai</tspan></text>
    <text
       id="text3691"
       y="119.63016"
       x="87.886833"
       style="font-size:39.73943329px;font-style:normal;font-weight:normal;fill:#000000;fill-opacity:1;stroke:none;font-family:Bitstream Vera Sans"
       xml:space="preserve"><tspan
         style="font-size:7.94788647px;font-family:Consolas;-inkscape-font-specification:Consolas"
         y="119.63016"
         x="87.886833"
         id="tspan3693"
         sodipodi:role="line">combinaison</tspan></text>
    <text
       xml:space="preserve"
       style="font-size:43.87452316px;font-style:normal;font-weight:normal;fill:#000000;fill-opacity:1;stroke:none;font-family:Bitstream Vera Sans"
       x="183.07303"
       y="120.20001"
       id="text3695"><tspan
         sodipodi:role="line"
         id="tspan3697"
         x="183.07303"
         y="120.20001"
         style="font-size:8.77490425px;font-family:Consolas;-inkscape-font-specification:Consolas">B</tspan></text>
    <text
       id="text3699"
       y="120.20001"
       x="203.15717"
       style="font-size:43.87452316px;font-style:normal;font-weight:normal;fill:#000000;fill-opacity:1;stroke:none;font-family:Bitstream Vera Sans"
       xml:space="preserve"><tspan
         style="font-size:8.77490425px;font-family:Consolas;-inkscape-font-specification:Consolas"
         y="120.20001"
         x="203.15717"
         id="tspan3701"
         sodipodi:role="line">M</tspan></text>
  </g>
  <g
     inkscape:groupmode="layer"
     id="layer10"
     inkscape:label="texte milieu"
     style="display:none">
    <text
       xml:space="preserve"
       style="font-size:40px;font-style:normal;font-weight:normal;fill:#000000;fill-opacity:1;stroke:none;font-family:Bitstream Vera Sans"
       x="29.574219"
       y="99.597656"
       id="text3781"><tspan
         sodipodi:role="line"
         id="tspan3783"
         x="29.574219"
         y="99.597656"
         style="font-size:12px;font-family:Consolas;-inkscape-font-specification:Consolas">Proposition :</tspan></text>
  </g>
  <g
     inkscape:label="fond haut"
     inkscape:groupmode="layer"
     id="layer1"
     transform="translate(0,-780.36218)"
     style="display:inline">
    <path
       style="fill:url(#linearGradient3709);fill-opacity:1;stroke:none"
       d="m 2,766.36218 c 0,0 -11.8936925,60.67562 46.5,58.71875 7.430073,-0.24899 19.11625,-0.74895 33.78125,-1.3125 0.09923,-0.32336 0.138164,-0.64461 0.125,-1 l -0.25,-7.53125 c -1.242313,-1.11036 -2.685706,-2.02326 -4.3125,-2.71875 1.452303,-0.40965 2.76099,-0.52131 3.96875,-0.34375 -1.745893,-1.49236 -3.527816,-2.5754 -5.375,-3.21875 2.303048,-0.26282 4.093732,-0.3187 5.34375,-0.1875 l -0.34375,-8.53125 c -4.500053,-2.63549 -9.717282,-4.07624 -15.6875,-4.34375 2.643625,-0.67608 5.674066,-1.09204 9.09375,-1.21875 2.220973,-0.0822 4.407658,-0.029 6.59375,0.15625 l -0.84375,2.25 6.90625,2.75 c 1.034886,-0.88361 2.549047,-1.40143 4.5,-1.5625 -1.163337,1.02199 -1.725346,2.0411 -1.6875,3.0625 0.01315,0.35542 0.09163,0.66472 0.28125,0.96875 0.680531,1.57585 1.282609,2.90805 1.8125,4 1.345436,2.70761 2.241797,4.09674 2.6875,4.125 0.668501,0.0201 2.080434,-3.95576 4.1875,-11.90625 0.16082,-0.45056 0.230238,-0.84556 0.21875,-1.15625 -0.02307,-0.6221 -0.743582,-1.56096 -2.125,-2.84375 1.383371,0.12633 2.72526,0.57695 4,1.375 1.7764,-1.26695 5.41044,-2.14155 10.90625,-2.65625 -3.08225,2.02633 -4.58064,4.13629 -4.5,6.3125 l 0.8125,22.3125 c 0.69324,1.71317 3.30819,0.83982 5.125,0.78125 l -1.75,-0.5 c 0.43375,-0.32547 0.89651,-0.67302 1.375,-1 0.64987,-0.51098 0.95376,-1.01116 0.9375,-1.5 l -0.125,-5.25 c -0.0266,-0.79951 -0.81181,-1.31618 -2.375,-1.53125 1.18115,-0.57262 2.4006,-1.16237 3.625,-1.78125 1.52998,-0.80733 3.15184,-2.02932 4.875,-3.6875 -0.842,-2.59548 -2.43439,-4.40411 -4.78125,-5.4375 -1.85214,-0.87228 -4.29022,-1.30576 -7.3125,-1.25 1.87657,-1.08512 3.85044,-1.64927 5.9375,-1.71875 5.02,-0.16702 10.01806,2.45066 15,7.84375 -1.08703,-0.58671 -2.16303,-1.16406 -3.25,-1.75 -0.90297,-0.41451 -1.67909,-0.59731 -2.34375,-0.53125 1.00936,0.94517 2.19856,2.33481 3.59375,4.15625 1.48822,1.95111 2.70427,3.39568 3.625,4.34375 1.65668,1.67924 3.60494,3.20202 5.875,4.59375 -4.22789,-0.0816 -7.71666,0.62365 -10.46875,2.09375 -7.86422,4.26433 6.12082,2.28859 9.3125,2.1875 l -1.75,-0.5 c 0.80231,0.0652 1.54716,-0.0554 2.25,-0.34375 0.70284,-0.28835 1.04336,-0.63185 1.03125,-1.03125 l -0.34375,-11.40625 c -0.0162,-0.53277 -0.29747,-0.76749 -0.875,-0.75 -0.35547,0.0108 -1.03249,0.15967 -2,0.5 2.98445,-4.22568 7.76233,-7.5651 14.3125,-10.03125 -1.07667,1.14403 -2.04896,2.47469 -2.9375,3.96875 -1.05861,1.76632 -1.5908,3.09827 -1.5625,4.03125 l 0.46875,15.3125 c 2.05022,-0.21623 4.41877,0.61747 5.78125,-1.15625 l -0.53125,-20.53125 c -0.01,-0.35547 -0.17067,-0.50719 -0.4375,-0.5 -0.22209,0.006 -0.55037,0.12624 -1.03125,0.40625 1.48243,-2.70791 3.22666,-4.69958 5.28125,-6 1.4866,-0.93002 3.96595,-1.91136 7.40625,-2.9375 -2.26226,1.83928 -3.37023,3.24095 -3.34375,4.21875 l 0.125,4.6875 c 3.46551,-0.0938 6.49667,-0.0388 9.125,0.15625 -3.78977,1.25865 -6.78973,2.92642 -9,5.03125 l 0.40625,14.40625 c 3.43512,-0.093 8.65781,-1.41646 15.625,-3.9375 l -0.21875,-9.9375 c -0.0108,-0.48895 -0.25711,-0.83341 -0.75,-1 -0.26785,-0.0388 -1.03333,-0.13135 -2.28125,-0.28125 3.17806,-3.04862 8.42369,-5.47493 15.71875,-7.28125 -1.04702,0.91205 -2.06026,1.80775 -3.0625,2.71875 -0.82605,0.81844 -1.41313,1.6789 -1.75,2.53125 l 7.8125,-5.78125 c 2.71622,2.20701 4.1042,4.48921 4.15625,6.84375 0.0658,2.977 -1.99543,6.167 -6.1875,9.59375 0.57151,-2.2796 0.83506,-3.91559 0.8125,-4.9375 -0.0383,-1.73295 -0.64149,-2.93941 -1.8125,-3.625 -1.5499,0.25649 -2.57747,0.46729 -3.0625,0.65625 -1.05782,0.42307 -1.55287,1.11582 -1.53125,2.09375 -0.0713,17.78944 -1.19829,13.56942 15.1875,13.25 l -1.625,-0.46875 c 1.58875,-0.69273 2.38231,-1.27446 2.375,-1.71875 l -0.21875,-13.1875 c -0.0102,-0.62164 -0.35825,-1.14186 -1.03125,-1.53125 4.20913,-3.53651 9.39892,-5.7547 15.5625,-6.65625 -0.70086,0.58944 -1.06837,1.08195 -1.0625,1.4375 0.002,0.13348 0.0661,0.2253 0.15625,0.3125 l 2.8125,4.4375 c 0.36581,0.61665 1.41429,1.18308 3.15625,1.6875 -3.70837,1.57249 -6.11978,2.70807 -7.21875,3.4375 -1.89162,1.23167 -3.46798,2.99394 -4.71875,5.28125 0.21779,-2.93772 1.00152,-5.10045 2.3125,-6.5 l -2.8125,-4.21875 0.25,15.40625 c 2.64223,-1.46619 5.81152,-2.25178 9.5,-2.3125 1.02198,-0.0168 2.19613,0.027 3.53125,0.0937 -5.14364,1.48446 -8.66753,2.90915 -10.625,4.3125 6.07489,-1.01961 33.05176,2.15614 34.75,-2.375 l 0,-7.75 c -1.38075,-1.01808 -2.9882,-1.8751 -4.8125,-2.625 1.33196,-0.35951 2.91426,-0.53928 4.78125,-0.5 -2.00474,-1.50535 -4.10118,-2.64388 -6.28125,-3.4375 2.17655,-0.40673 4.24493,-0.51636 6.15625,-0.34375 l -0.0312,-5 c -0.005,-1.77812 -1.52736,-2.66519 -4.59375,-2.65625 -1.59992,0.005 -3.44365,0.25483 -5.53125,0.75 3.10505,-2.09809 6.41677,-3.75878 9.96875,-4.96875 0.75523,-0.2691 3.60164,-1.02249 8.53125,-2.28125 -0.44266,0.57914 -0.65821,1.17729 -0.65625,1.84375 0.002,0.57783 0.17538,1.05169 0.53125,1.40625 l 5.75,0 c 0.22072,-0.48971 0.31352,-0.92558 0.3125,-1.28125 -0.002,-0.533 -0.21037,-1.06116 -0.65625,-1.59375 2.58057,0.83722 5.10646,2.52342 7.625,5.09375 2.51849,2.57039 4.11975,5.19229 4.75,7.8125 l -2.09375,-0.59375 c -1.81552,2.53871 -3.84941,4.38748 -6.15625,5.59375 -1.89639,0.93288 -4.47428,1.65809 -7.6875,2.15625 l 0.0312,9.75 c 4.53201,1.05494 11.63564,0.5191 16.9687,0.53125 l -1.625,-0.5 c 1.60446,-0.65553 2.40321,-1.21191 2.40625,-1.65625 l 0.0937,-13.21875 c 0.004,-0.62171 -0.33625,-1.12628 -1,-1.53125 4.29038,-3.4375 9.53584,-5.52353 15.71875,-6.28125 -0.7144,0.57296 -1.09133,1.01941 -1.09375,1.375 -9.3e-4,0.13349 0.0681,0.25447 0.15625,0.34375 l 2.6875,4.5 c 0.35135,0.625 1.39527,1.20514 3.125,1.75 -3.74399,1.48567 -6.16559,2.57762 -7.28125,3.28125 -1.9198,1.18727 -3.54004,2.89869 -4.84375,5.15625 0.28617,-2.93185 1.09427,-5.06887 2.4375,-6.4375 l -2.6875,-4.28125 -0.125,15.375 c 2.67567,-1.40424 5.87361,-2.08772 9.5625,-2.0625 1.02209,0.007 2.19805,0.0584 3.53125,0.15625 -18.673,5.16379 -6.92751,4.07984 3.71875,4.21875 l -2.875,-1.15625 c 2.01057,-0.54107 3.02147,-1.05997 3.03125,-1.59375 l 0.25,-13.625 c 0.009,-0.48899 -0.21768,-0.86852 -0.65625,-1.1875 -0.17657,-0.0919 -0.78598,-0.37995 -1.84375,-0.84375 1.3157,-1.48737 3.46876,-2.84164 6.46875,-4.03125 2.41821,-0.93405 4.89723,-1.57082 7.4375,-1.96875 -2.71685,2.75105 -4.09898,4.82855 -4.125,6.25 2.5728,-2.13096 4.28496,-3.43226 5.09375,-3.90625 0.80876,-0.47393 1.96981,-0.89162 3.53125,-1.21875 -0.37512,1.06024 -0.37057,2.0425 -0.0312,2.9375 3.55408,2.55412 5.28545,5.66811 5.21875,9.3125 -0.0496,2.71034 -1.0784,5.42349 -3.0625,8.1875 -0.76767,1.06941 -1.63548,2.11954 -2.625,3.125 4.45006,0.0952 8.83398,0.21642 13.1875,0.34375 l -7.40625,-3.6875 c 2.38686,0.43465 5.38393,0.72642 8.9375,0.84375 2.79876,0.0924 4.6869,-0.004 5.71875,-0.28125 0.73433,-0.68739 1.12543,-1.50456 1.15625,-2.4375 0.044,-1.33227 -0.63299,-2.36716 -2.03125,-3.125 -0.4807,-0.23814 -4.46322,-1.67719 -11.9375,-4.28125 0.8934,-0.10401 1.34375,-0.15623 1.34375,-0.15625 0.58041,-0.0696 0.91604,-0.23546 0.96875,-0.5 l 0.125,-3.9375 c 0.0191,-0.57746 -0.75377,-0.83204 -2.3125,-0.75 2.28793,-1.96981 4.83649,-3.42196 7.625,-4.375 2.78849,-0.95297 6.4541,-1.5805 11,-1.875 -0.50351,0.42798 -1.03004,0.83472 -1.53125,1.21875 -0.77762,0.64122 -1.14746,1.10825 -1.15625,1.375 -0.003,0.0887 0.0378,0.14068 0.125,0.1875 3.01125,1.74505 4.46344,3.48632 4.40625,5.21875 -0.0323,0.97687 -0.5089,2.04842 -1.4375,3.21875 -0.48582,-1.43932 -1.38164,-2.5627 -2.6875,-3.40625 -1.08762,-0.74672 -2.17103,-1.15081 -3.28125,-1.1875 -0.44411,-0.0146 -0.8226,0.0325 -1.09375,0.15625 -0.63023,0.24629 -1.22769,0.48455 -1.8125,0.6875 -0.54679,0.38258 -0.81325,1.22877 -0.8125,2.5625 3.96684,1.06495 8.72779,3.02336 14.28125,5.875 -1.11171,0.007 -1.82967,0.12196 -2.125,0.3125 -0.29537,0.19057 -0.45118,0.56102 -0.46875,1.09375 l -0.15625,4.96875 c -0.0176,0.53357 0.18822,0.91955 0.625,1.15625 0.0439,0.002 0.40286,0.13094 1.0625,0.375 -2.33108,0.25982 -4.44749,0.6311 -6.375,1.09375 2.73882,0.10015 5.50154,0.1976 8.1875,0.3125 l -1.7187,-0.625 c 1.63202,-0.58353 2.44595,-1.08749 2.46875,-1.53125 l 0.6875,-13.1875 c 0.0319,-0.6209 -0.26117,-1.15966 -0.90625,-1.59375 4.43901,-3.24328 9.75826,-5.08052 15.96875,-5.5625 -0.73918,0.54062 -1.13802,0.98862 -1.15625,1.34375 -0.007,0.13332 0.041,0.25064 0.125,0.34375 l 2.5,4.59375 c 0.3232,0.64001 1.32746,1.25375 3.03125,1.875 -3.80636,1.31769 -6.2604,2.31544 -7.40625,2.96875 -1.9707,1.10071 -3.65967,2.74016 -5.0625,4.9375 0.41628,-2.91622 1.31598,-5.03621 2.71875,-6.34375 l -2.5,-4.375 -0.8125,15.375 c 2.73548,-1.28385 5.97213,-1.84551 9.65625,-1.65625 1.02077,0.0525 2.17246,0.15549 3.5,0.3125 -5.20027,1.12569 -8.78886,2.33482 -10.84375,3.59375 5.67568,0.29309 11.20507,0.62934 16.5625,1 l -3.8125,-1.28125 c 1.1213,-0.0917 1.71243,-0.58274 1.78125,-1.46875 l 0.9375,-12.15625 c 0.0379,-0.4876 -0.16944,-0.74341 -0.65625,-0.78125 -0.35457,-0.0275 -0.8808,0.0176 -1.5625,0.1875 1.67105,-2.00958 3.67444,-3.52873 6.03125,-4.59375 1.61591,-0.72173 4.0956,-1.46347 7.40625,-2.1875 -0.62429,0.57598 -1.29646,1.19624 -1.96875,1.8125 -1.01326,0.99144 -1.52464,1.73115 -1.5625,2.21875 l -1.1875,15.34375 c 1.72564,-0.4006 2.75668,-0.66315 3.125,-0.8125 1.09734,-0.36125 1.69533,-0.81576 1.78125,-1.34375 l 0.6875,-8.78125 c 0.0309,-0.39835 -0.16333,-0.62522 -0.5625,-0.65625 -0.26533,-0.0206 -0.80684,0.0779 -1.625,0.28125 1.07858,-1.83276 2.9765,-3.3438 5.65625,-4.5625 2.26066,-0.98346 4.85276,-1.66631 7.78125,-2.0625 -1.01921,0.50041 -1.95911,1.14129 -2.78125,1.96875 -0.82219,0.82752 -1.25745,1.6034 -1.3125,2.3125 l -1.15625,14.8125 c -0.0516,0.66451 0.4616,1.30136 1.53125,1.875 -3.08137,0.34788 -5.01076,0.62042 -6.15625,0.84375 3.22489,0.27745 6.37502,0.56232 9.4375,0.875 l -2.25,-1.03125 c 1.14648,-0.21869 1.88698,-0.43194 2.25,-0.65625 0.36301,-0.22429 0.57661,-0.54003 0.625,-0.9375 L 392,809.20593 c 0.0591,-0.48549 -0.12968,-0.82727 -0.59375,-1.0625 -0.25957,-0.0767 -1.00501,-0.29851 -2.21875,-0.625 3.58067,-2.56378 9.11556,-4.19095 16.59375,-4.9375 -1.16648,0.75327 -2.31549,1.49138 -3.4375,2.25 -0.93441,0.69216 -1.63866,1.45446 -2.09375,2.25 l 8.5625,-4.625 c 2.37339,2.57211 3.40956,5.03714 3.125,7.375 -0.35984,2.9559 -2.83048,5.8317 -7.46875,8.625 0.89104,-2.17468 1.37647,-3.76659 1.5,-4.78125 0.20944,-1.72068 -0.22009,-2.99804 -1.28125,-3.84375 -1.57064,0.0326 -2.58672,0.10096 -3.09375,0.21875 -1.10737,0.26775 -1.72556,0.87275 -1.84375,1.84375 l -1.65625,13.53125 c 27.21998,3.2518 46.48938,8.10987 52.25,15.28125 26.72253,33.26686 -20.63821,135.18666 -15.84375,157.53127 6.92806,32.2885 38.45722,35.5765 46.375,40.4687 -0.21392,-15.6139 -0.84375,-272.34372 -0.84375,-272.34372 L 2,766.36218 z m 304.375,53 c 0.6501,-1.49957 1.01008,-2.81333 1.03125,-3.96875 0.022,-1.20014 -0.28348,-2.64398 -0.875,-4.34375 -0.55005,-1.52154 -1.54354,-3.78988 -3,-6.75 -1.60781,0.415 -2.42449,0.97638 -2.4375,1.6875 l -0.25,14.03125 c 2.12391,0.26825 4.04933,0.10123 5.53125,-0.65625 z m -135.46875,0.9375 c 1.10352,-0.38009 1.82896,-0.72617 2.15625,-1 0.32728,-0.27381 0.47759,-0.5997 0.46875,-1 L 173.5,816.26843 c -1.77099,1.71673 -3.69387,3.27866 -5.75,4.71875 l 3.15625,-0.6875 z m -70.4375,1.9375 -0.34375,-11.34375 c -0.0444,-1.1987 -0.256967,-1.79602 -0.65625,-1.78125 -0.400136,0.0148 -1.061451,0.79987 -1.9375,2.34375 -0.750876,1.36257 -1.501597,2.74983 -2.25,4.15625 -2.643197,-4.12697 -4.217336,-6.17596 -4.75,-6.15625 -0.355398,0.0132 -0.50988,0.57744 -0.46875,1.6875 l 0.40625,11.25 c 0.01119,0.30219 0.165901,0.6639 0.40625,1.0625 3.161821,0.16782 7.686509,-0.35925 9.59375,-1.21875 z m 38.9375,-31 c 1.29494,1.651 2.86245,3.0252 4.71875,4.125 -2.00024,1.48306 -3.42398,2.97388 -4.3125,4.46875 -1.25021,-1.65228 -2.88262,-3.06551 -4.875,-4.25 1.78219,-1.34366 3.27082,-2.79546 4.46875,-4.34375 z m 115.125,4.53125 c -0.93344,0.003 -1.95233,0.11837 -3.0625,0.34375 l 0.0312,13.25 c 1.61579,-1.50069 3.13281,-3.15357 4.53125,-5 1.85943,-2.53879 2.78539,-4.51577 2.78125,-5.9375 -0.005,-1.77812 -1.43623,-2.66454 -4.28125,-2.65625 z m -132.09375,14.5625 -1.40625,0.0312 0.28125,8.1875 3.75,-1.65625 -2.625,-6.5625 z"
       id="path2818"
       sodipodi:nodetypes="cscccccccccsccccsccscscccccccccccccccscccccccccsccscccccccsccccccccccccccccscscscccccccsccccccccscccccccccscccsccscscccccccccccsccccccccsccccccccccsccsscccscsccscccsccscsccsccccsccsccccccccsccccccccsccccccscccccccccscccsccccccsccccccccscscsccsscccccccccccccccccccscccccccccccccscccccccc" />
  </g>
  <g
     inkscape:groupmode="layer"
     id="layer4"
     inkscape:label="maitre penseur"
     style="display:inline"
     sodipodi:insensitive="true">
    <text
       transform="translate(6.79e-5,-784.36265)"
       id="text2896"
       style="font-size:40px;font-style:normal;font-weight:normal;fill:#000000;fill-opacity:1;stroke:#000000;stroke-opacity:1;display:inline;font-family:Bitstream Vera Sans"
       xml:space="preserve"><textPath
         id="textPath2898"
         xlink:href="#path2818-4"><tspan
   id="tspan2900"
   style="font-style:normal;font-variant:normal;font-weight:normal;font-stretch:normal;fill:#ffffff;fill-opacity:1;stroke:#003d00;stroke-opacity:1;font-family:Unreal Tournament;-inkscape-font-specification:Unreal Tournament">      Maitre Penseur</tspan></textPath></text>
  </g>
  <g
     inkscape:groupmode="layer"
     id="layer8"
     inkscape:label="fond a propos"
     style="display:inline"
     sodipodi:insensitive="true">
    <rect
       style="opacity:0.8;fill:#000000;fill-opacity:1;stroke:#000000;stroke-width:0.51096761;stroke-opacity:1"
       id="rect3727"
       width="359.98904"
       height="187.98903"
       x="38.005486"
       y="70.005486"
       ry="20.887671" />
  </g>
  <g
     inkscape:groupmode="layer"
     id="layer3"
     inkscape:label="texte a propos"
     style="display:inline">
    <g
       id="g2938">
      <text
         id="text3708"
         y="88.925781"
         x="54.75"
         style="font-size:40px;font-style:normal;font-weight:normal;text-align:start;text-anchor:start;fill:#000000;fill-opacity:1;stroke:none;display:inline;font-family:Bitstream Vera Sans"
         xml:space="preserve"><tspan
           style="font-size:16px;font-style:normal;font-variant:normal;font-weight:normal;font-stretch:normal;text-align:start;text-anchor:start;fill:#ffffff;font-family:Consolas;-inkscape-font-specification:Consolas"
           id="tspan3712"
           y="88.925781"
           x="54.75"
           sodipodi:role="line">          Maitre penseur v1</tspan><tspan
           style="font-size:16px;font-style:normal;font-variant:normal;font-weight:normal;font-stretch:normal;text-align:start;text-anchor:start;fill:#ffffff;font-family:Consolas;-inkscape-font-specification:Consolas"
           id="tspan3722"
           y="108.92578"
           x="54.75"
           sodipodi:role="line">                      par la BoboTiG</tspan><tspan
           id="tspan2926"
           style="font-size:16px;font-style:normal;font-variant:normal;font-weight:normal;font-stretch:normal;text-align:start;text-anchor:start;fill:#ffffff;font-family:Consolas;-inkscape-font-specification:Consolas"
           y="128.92578"
           x="54.75"
           sodipodi:role="line" /><tspan
           style="font-size:16px;font-style:normal;font-variant:normal;font-weight:normal;font-stretch:normal;text-align:start;text-anchor:start;fill:#ffffff;font-family:Consolas;-inkscape-font-specification:Consolas"
           y="148.92578"
           x="54.75"
           sodipodi:role="line"
           id="tspan2914">Merci à Bigdoudou pour la musique.</tspan><tspan
           id="tspan2928"
           style="font-size:16px;font-style:normal;font-variant:normal;font-weight:normal;font-stretch:normal;text-align:start;text-anchor:start;fill:#ffffff;font-family:Consolas;-inkscape-font-specification:Consolas"
           y="168.92578"
           x="54.75"
           sodipodi:role="line">Et aux testeurs :</tspan><tspan
           id="tspan2930"
           style="font-size:16px;font-style:normal;font-variant:normal;font-weight:normal;font-stretch:normal;text-align:start;text-anchor:start;fill:#ffffff;font-family:Consolas;-inkscape-font-specification:Consolas"
           y="188.92578"
           x="54.75"
           sodipodi:role="line">    Camarade, les p'tits frères</tspan><tspan
           id="tspan2936"
           style="font-size:16px;font-style:normal;font-variant:normal;font-weight:normal;font-stretch:normal;text-align:start;text-anchor:start;fill:#ffffff;font-family:Consolas;-inkscape-font-specification:Consolas"
           y="208.92578"
           x="54.75"
           sodipodi:role="line">    Alexandra et Gégène</tspan><tspan
           id="tspan2934"
           style="font-size:16px;font-style:normal;font-variant:normal;font-weight:normal;font-stretch:normal;text-align:start;text-anchor:start;fill:#ffffff;font-family:Consolas;-inkscape-font-specification:Consolas"
           y="228.92578"
           x="54.75"
           sodipodi:role="line" /><tspan
           style="font-size:16px;font-style:normal;font-variant:normal;font-weight:normal;font-stretch:normal;text-align:start;text-anchor:start;fill:#ffffff;font-family:Consolas;-inkscape-font-specification:Consolas"
           id="tspan3724"
           y="248.92578"
           x="54.75"
           sodipodi:role="line">http://bobotig.fr/maitre_penseur_psp</tspan></text>
    </g>
  </g>
</svg>
